PathFileType	4	(X/Y/Z)	0_coords_data.trc
DataRate	CameraRate	NumFrames	NumMarkers	Units	OrigDataRate	OrigDataStartFrame	OrigNumFrames
30.0	30.0	9	21	m	30.0	1	59
Frame#	Time	THUMB_TIP	THUMB_IP	THUMB_MCP	THUMB_CMC	INDEX_TIP	INDEX_DIP	INDEX_PIP	INDEX_MCP	MIDDLE_TIP	MIDDLE_DIP	MIDDLE_PIP	MIDDLE_MCP	RING_TIP	RING_DIP	RING_PIP	RING_MCP	PINKY_TIP	PINKY_DIP	PINKY_PIP	PINKY_MCP	WRIST
X1	Y1	Z1	X2	Y2	Z2	X3	Y3	Z3	X4	Y4	Z4	X5	Y5	Z5	X6	Y6	Z6	X7	Y7	Z7	X8	Y8	Z8	X9	Y9	Z9	X10	Y10	Z10	X11	Y11	Z11	X12	Y12	Z12	X13	Y13	Z13	X14	Y14	Z14	X15	Y15	Z15	X16	Y16	Z16	X17	Y17	Z17	X18	Y18	Z18	X19	Y19	Z19	X20	Y20	Z20	X21	Y21	Z21
0	-2.749317978547796e-18	0.5409058300819376	-0.025018618516099767	-0.13210100439433586	0.5239846757227244	-0.018988683857122712	-0.11777220740505057	0.4935135437164341	-0.014278173807102501	-0.11351295755045315	0.4705740307766859	-0.029817730694256306	-0.07855311032770285	0.5675960117747195	0.0597797782273376	-0.1540963631534369	0.5537348220560998	0.05117082018569852	-0.14623803883958175	0.5353457570728395	0.03981389675987401	-0.1333977735642306	0.5052524433264375	0.023777799993878523	-0.10788557722067282	0.5146413210073837	-0.008534170336292668	-0.11666513484662427	0.530058575612189	-0.005652036715774411	-0.1257206064657111	0.5469879403751928	0.017110427348553503	-0.11903656663628542	0.5194562076135161	0.025007472201864167	-0.08474679710185401	0.5307696458318522	-0.021692677541766403	-0.10506683580270376	0.5467310868809909	-0.017650675145293837	-0.11240813107409708	0.560610790111438	0.0015443597789361885	-0.10472148996810621	0.5334197312330001	0.005604661354059126	-0.07507556103699686	0.5940526503785908	0.025934576299732948	-0.07627181016428747	0.5810306058580299	0.014912834424821941	-0.07487625918085422	0.5639032075045087	0.0031347950535148827	-0.0719195662296429	0.534374597219397	-0.016963399652959343	-0.06691884676434134	0.4622830810018608	-0.023011742144276925	-0.051989820119430985
1	0.03333333333333339	0.5410099188168567	-0.025304700252264056	-0.13189638467338843	0.5240282750411162	-0.01917682574366586	-0.11768114887932835	0.493570325957535	-0.014318712166857428	-0.1134940173914471	0.4706327858738153	-0.029846015934078318	-0.07852743201872026	0.5683463025393946	0.05925730215057967	-0.1537504539058262	0.5544055339992026	0.050749822149673496	-0.1459224428849491	0.5359120422184637	0.0395170290008523	-0.1331230306784632	0.5056458686369375	0.023546810733269252	-0.10777452067849091	0.5148959000002921	-0.008620305708804343	-0.11640811259261719	0.5303452031663781	-0.0058958112226722426	-0.12545776239122247	0.5473357897219443	0.016791716920273703	-0.1186750206697017	0.5196776005256175	0.024888034643613888	-0.08453381198133031	0.5309151086722185	-0.021955633097542337	-0.10479452640969567	0.5468922189758408	-0.017973393535682947	-0.1121343979629209	0.5608699811464519	0.0011337350118324485	-0.10440654040920266	0.5335868740443892	0.005354454087539207	-0.07486777890264418	0.5943315374016503	0.025331910249289158	-0.07595970436034938	0.5812722259530964	0.014349263217356412	-0.07460476943141686	0.5640985117959435	0.002628520479325158	-0.07168933623593937	0.5344474541571221	-0.017289899057398528	-0.06669385877543826	0.4622830810018609	-0.023011742144276925	-0.051989820119430985
2	0.06666666666666676	0.5411169023533839	-0.025552208287040412	-0.13171150244986474	0.5240868712813851	-0.019341896913990575	-0.11759023925082612	0.4936377944218232	-0.014369706408732696	-0.11347307518075078	0.47068890007041664	-0.02987222571286685	-0.07850294302096428	0.5689734052543799	0.05882718641381812	-0.15343717672735074	0.5549676654354505	0.050395262441294	-0.14564346706852793	0.5363842377859629	0.03926337995636364	-0.13288622433594788	0.5059637114353489	0.02336598713016602	-0.10767708766129824	0.5151103249051031	-0.008710334789486351	-0.11620268967535191	0.530589491353117	-0.006100922780243878	-0.12523520732220467	0.5476262629859521	0.016528464014877176	-0.11837453566358191	0.5198597942935428	0.02478686326967161	-0.08436027425602133	0.5310481495786515	-0.022170325423910398	-0.10456396573989835	0.5470382162882897	-0.018228187435266663	-0.11189726749966622	0.56108286394256	0.0008197674502058439	-0.10414463788459971	0.5337254209270961	0.005147711498253882	-0.07469026561200481	0.594544342713603	0.02486638592914381	-0.07570171205277859	0.5814568373496268	0.013913829212799378	-0.07437555040231764	0.5642482459445606	0.0022358620520522843	-0.07149432083041773	0.5345065416970358	-0.017547345171253337	-0.0665004053913531	0.4622830810018608	-0.023011742144276925	-0.051989820119430985
3	0.10000000000000014	0.5412246985060435	-0.025766527710788356	-0.13154585397829344	0.5241565855647079	-0.01948737380035548	-0.11750121988584	0.4937125942703885	-0.014429696620459898	-0.11345112166291149	0.47074146198905586	-0.029896712258304037	-0.07847986905491644	0.5694894247585789	0.05847836644491744	-0.153158629420799	0.5554313517107315	0.050099643554076034	-0.14540185271266304	0.5367710550108535	0.03904822080252068	-0.13268693174401652	0.5062140033167167	0.023229241074114393	-0.10759385369220842	0.5152870279827767	-0.008802403550735027	-0.11604373771749849	0.5307942609936473	-0.0062722997661228685	-0.125050640580617	0.5478643132100397	0.016313992748557715	-0.11813093988109791	0.5200063370241441	0.02470247449166496	-0.08422350031583975	0.5311686057436603	-0.022343143674975252	-0.10437287103018311	0.5471691634128032	-0.01842408104695603	-0.11169565072058057	0.5612538962969231	0.0005900024535516746	-0.1039326031734692	0.533838104998628	0.004980399310709482	-0.07454179445841358	0.5947000288049958	0.024522347234771757	-0.07549606305156958	0.581592237634336	0.013591931623007758	-0.07418769567943129	0.5643587578563566	0.001944071105190348	-0.07133348140936552	0.5345537290036729	-0.017742919946084457	-0.06633687361630025	0.4622830810018609	-0.023011742144276925	-0.051989820119430985
4	0.13333333333333353	0.5413310262757681	-0.025952757364171797	-0.13139882520244517	0.5242334315479676	-0.019616455534855914	-0.11741585221199358	0.4937913617422556	-0.014497221096614998	-0.11342914621449646	0.47078956684467044	-0.029919832798563695	-0.07845843733148494	0.5699059586839613	0.058199555658490776	-0.1529163017254888	0.5558064133595032	0.04985523075135789	-0.14519781330561343	0.5370809529028817	0.03886668126672821	-0.1325242682644125	0.5064044078507386	0.023130383988863246	-0.10752517576795373	0.5154285550286758	-0.00889519053290666	-0.11592631711353035	0.5309620888141224	-0.0064146515878830135	-0.12490163073917082	0.548054640760767	0.016141678548880267	-0.11793986453276845	0.5201207258800357	0.02463325514719572	-0.08412067697140035	0.531276119007597	-0.022480072995856415	-0.10421865735644725	0.5472849043282433	-0.01856980653419449	-0.1115281449415152	0.5613871556860591	0.0004320736002190184	-0.10376702150490097	0.5339275470328517	0.004848343185506421	-0.07442102877058088	0.5948069231840161	0.024283723458426665	-0.07534077230049435	0.58168563136812	0.013368599176574958	-0.07404009440269416	0.5644358664854139	0.0017400513100013226	-0.07120557416001383	0.534590617741047	-0.017884007533305324	-0.06620148654074587	0.462283081001861	-0.023011742144276925	-0.051989820119430985
5	0.1666666666666669	0.5414334641161408	-0.02611578626853628	-0.13126974107385736	0.5243133577777095	-0.019732143488570775	-0.11733593097688105	0.49387073652127944	-0.014570818161469434	-0.11340814127968862	0.47083231653898594	-0.029941948550408548	-0.07843887541256328	0.5702342231600692	0.05797927688078697	-0.15271122378575142	0.5561024267807251	0.04965408504566926	-0.1450311513901783	0.5373221961482342	0.038713757636536394	-0.1323969910868012	0.5065423029799625	0.02306314743122806	-0.10747124795342039	0.5155375017015661	-0.008987729546834022	-0.11584555371814304	0.5310953568496504	-0.006532535695207287	-0.12478564132074299	0.5482017357102927	0.01600492979104773	-0.11779679293692219	0.5202064075449114	0.024577489553289533	-0.08404889313507669	0.5313701716638809	-0.02258684747498052	-0.10409853780435668	0.5473850973046305	-0.018673915124271634	-0.11139313286782937	0.5614864336893163	0.0003336669913444057	-0.10364431919836681	0.5339962690774375	0.0047472626327778045	-0.07432654545741335	0.594872867274314	0.02413416063481222	-0.07523369573548633	0.581743769308711	0.013228610153827036	-0.07393148403369404	0.5644849835767154	0.0016104751996626199	-0.07110920228945056	0.5346185949653374	-0.017978128746096722	-0.06609234293619665	0.462283081001861	-0.023011742144276925	-0.051989820119430985
6	0.20000000000000023	0.5415294966961097	-0.026260358521448035	-0.13115790267057315	0.5243922791972306	-0.019837306968506607	-0.1172632927392232	0.49394737107279874	-0.014649027784803148	-0.11338910528804796	0.47086881928464774	-0.02996342374471439	-0.07842140985719798	0.5704851618751194	0.05780588512107543	-0.15254409357614407	0.5563287876369946	0.049488090242388205	-0.14490136129074782	0.537502906828519	0.03858431962432707	-0.13230359041277984	0.5066348548939096	0.02302119818972792	-0.10743214664740541	0.5156164757986625	-0.009079272082166079	-0.11579655025554136	0.5311962949518763	-0.006630413881974828	-0.12470005117756688	0.5483099166637895	0.015897173169750034	-0.11769710011901385	0.5202667809976234	0.02453338348551637	-0.08400516733992175	0.5314501147026551	-0.022669076600720595	-0.10400960380993285	0.5474692589572868	-0.018744868554093963	-0.11128886260160187	0.5615553165194273	0.00028248989017454207	-0.10356082326491395	0.5340467086421194	0.004672799694955154	-0.07425685584631059	0.5949053497619029	0.024057124376108963	-0.07517257681181738	0.5817730728845413	0.013156585662869702	-0.07386049458212096	0.5645112233941504	0.0015418747551240175	-0.0710428605213202	0.5346388825970088	-0.01803288862641328	-0.06600745141616776	0.4622830810018609	-0.023011742144276925	-0.051989820119430985
7	0.23333333333333361	0.5416165509442235	-0.026391126908291485	-0.1310626128342834	0.52446609943653	-0.019934736085505333	-0.11719981980309019	0.49401793692577023	-0.014730392997250319	-0.11337304404037563	0.47089818876378686	-0.02998462469556129	-0.0784062646602165	0.5706695372402125	0.05766758570851538	-0.15241538318431141	0.556494765556446	0.04934897614780487	-0.14480771713686008	0.5376311091928416	0.03847311764523276	-0.1322423678210679	0.5066890823998644	0.022998149879689067	-0.10740786672686298	0.5156680747652369	-0.009169180806490318	-0.11577432488054418	0.5312670170215097	-0.006712696957231423	-0.12464217059321847	0.548383365918482	0.015811843099272416	-0.11763608426202937	0.5203052019401487	0.02449908497470288	-0.08398647123002556	0.5315151914959426	-0.022732345103020468	-0.10394888743102582	0.547536799777727	-0.018791110908912168	-0.11121351000155555	0.5615972517544925	0.0002662455594831803	-0.10351280655020911	0.5340812327374661	0.0046205426582834885	-0.07421042391278476	0.5949116208683644	0.024035978544443615	-0.07515508440842911	0.5817797406355609	0.013137060334015849	-0.07382568477185852	0.5645194972454477	0.001520709880703297	-0.07100497222714997	0.5346525818164685	-0.01805593589648924	-0.06594475939837097	0.4622830810018609	-0.023011742144276925	-0.051989820119430985
7	0.2666666666666655	0.5416920218315578	-0.026512695350528914	-0.13098319087226185	0.5245307249045392	-0.020027182468651872	-0.11714743970213332	0.4940791278873323	-0.014813461083619694	-0.11336097057894162	0.4709195428309002	-0.030005918916856555	-0.07839365948702015	0.5707980026668835	0.05755245031274103	-0.15232542400818683	0.5566095490410213	0.04922833930082571	-0.1447493458955964	0.5377147668619815	0.038374791457709945	-0.13221150163815582	0.5067119110973365	0.022987572469679085	-0.10739834947542165	0.5156948723755954	-0.00925684877029398	-0.11577377329734567	0.5313095513760916	-0.006783777223490328	-0.12460925386355454	0.5484261608306038	0.015742375396433528	-0.11760899108808631	0.5203249883657937	0.0244727018754628	-0.08398974917705321	0.531564558446936	-0.02278228626707013	-0.10391340672552724	0.5475870523259024	-0.018821121030591192	-0.11116522441958132	0.5616156012254551	0.00027261532997757687	-0.10349652005926346	0.5341021512131007	0.004586045040129827	-0.07418568202018216	0.5948987853012531	0.024054042867184378	-0.07517884277346748	0.5817698345344204	0.013154533414723835	-0.07382557064347828	0.5645145907928357	0.0015334175133963068	-0.07099391960099233	0.5346607112595889	-0.018054933275122864	-0.06590217714871632	0.4622830810018609	-0.023011742144276925	-0.051989820119430985
